<svg width="260" height="260" viewBox="0 0 260 260" fill="none" xmlns="http://www.w3.org/2000/svg">
<mask id="mask0_534_371" style="mask-type:alpha" maskUnits="userSpaceOnUse" x="0" y="0" width="260" height="260">
<rect width="260" height="260" fill="#D9D9D9"/>
</mask>
<g mask="url(#mask0_534_371)">
<path d="M0 0C85.8 0 171.6 0 260 0C260 85.8 260 171.6 260 260C174.2 260 88.4 260 0 260C0 174.2 0 88.4 0 0Z" fill="#BB5A40"/>
<path d="M0 0C85.8 0 171.6 0 260 0C260 92.4 260 184.8 260 280C174.2 280 88.4 280 0 280C0 187.6 0 95.2 0 0ZM10 58C8.6831 60.6338 8.86507 62.6023 8.85283 65.553C8.84567 66.7335 8.83852 67.914 8.83115 69.1302C8.82846 70.4321 8.82577 71.7339 8.823 73.0752C8.81673 74.4549 8.81009 75.8346 8.80309 77.2143C8.78567 80.9686 8.77512 84.7229 8.76688 88.4772C8.76173 90.8227 8.75565 93.1683 8.74937 95.5138C8.73031 102.852 8.71608 110.191 8.70776 117.529C8.69799 126 8.67167 134.471 8.63126 142.942C8.60109 149.489 8.58629 156.036 8.58298 162.583C8.58062 166.494 8.57167 170.404 8.54651 174.314C8.52322 177.995 8.519 181.675 8.52928 185.355C8.53001 187.346 8.51092 189.337 8.49121 191.328C8.45706 200.009 8.45706 200.009 13 207C17.1767 209.488 21.2055 209.285 25.9445 209.267C26.8584 209.272 27.7724 209.276 28.7139 209.281C31.7831 209.294 34.8522 209.292 37.9214 209.291C40.1191 209.297 42.3168 209.303 44.5146 209.311C50.4897 209.329 56.4649 209.333 62.4401 209.335C67.4253 209.336 72.4105 209.344 77.3957 209.351C88.4836 209.366 99.5715 209.372 110.659 209.371C111.325 209.371 111.99 209.371 112.675 209.371C113.674 209.37 113.674 209.37 114.694 209.37C125.489 209.37 136.283 209.389 147.078 209.417C158.164 209.446 169.249 209.459 180.335 209.458C186.558 209.457 192.781 209.463 199.004 209.484C204.856 209.503 210.708 209.504 216.561 209.489C218.709 209.487 220.858 209.492 223.007 209.504C225.939 209.519 228.869 209.51 231.801 209.494C233.079 209.51 233.079 209.51 234.381 209.526C239.699 209.464 242.839 208.621 247 205C249.269 201.845 249.257 199.03 249.274 195.206C249.289 193.432 249.289 193.432 249.304 191.621C249.305 190.326 249.306 189.032 249.306 187.698C249.314 186.318 249.322 184.938 249.332 183.558C249.354 179.812 249.362 176.066 249.367 172.32C249.371 169.979 249.377 167.638 249.384 165.296C249.409 157.126 249.422 148.956 249.426 140.786C249.429 133.174 249.459 125.563 249.501 117.951C249.536 111.413 249.551 104.874 249.552 98.3355C249.553 94.4317 249.561 90.5284 249.59 86.6247C249.616 82.9523 249.618 79.2806 249.602 75.6081C249.599 73.622 249.621 71.636 249.644 69.6501C249.748 62.5027 249.748 62.5027 246.713 56.2774C241.59 51.9763 237.7 51.7057 231.1 51.7191C230.191 51.7132 229.282 51.7072 228.345 51.7011C225.292 51.6837 222.239 51.6807 219.186 51.6777C217 51.6685 214.814 51.6584 212.628 51.6476C206.683 51.6214 200.739 51.6085 194.795 51.5996C191.082 51.5938 187.369 51.5856 183.656 51.5766C171.375 51.5477 159.094 51.529 146.813 51.5209C146.151 51.5204 145.489 51.52 144.807 51.5195C144.144 51.5191 143.481 51.5186 142.798 51.5182C132.059 51.5103 121.32 51.4754 110.581 51.4288C99.5507 51.3814 88.5206 51.357 77.4903 51.3541C71.2989 51.352 65.1079 51.3402 58.9165 51.3045C53.0929 51.2716 47.2698 51.2672 41.4461 51.2848C39.3092 51.2863 37.1722 51.2776 35.0353 51.2579C32.1164 51.2325 29.1998 51.2441 26.2808 51.265C25.4362 51.2489 24.5917 51.2328 23.7215 51.2162C17.5157 51.3199 14.0914 53.3453 10 58Z" fill="#272423"/>
<rect x="27" y="19" width="21" height="27" rx="4" fill="#C5C3C6"/>
<rect x="27" y="214" width="21" height="27" rx="4" fill="#C5C3C6"/>
<rect x="-10" y="19" width="21" height="27" rx="4" fill="#C5C3C6"/>
<rect x="-10" y="214" width="21" height="27" rx="4" fill="#C5C3C6"/>
<rect x="64" y="19" width="21" height="27" rx="4" fill="#C5C3C6"/>
<rect x="64" y="214" width="21" height="27" rx="4" fill="#C5C3C6"/>
<rect x="101" y="19" width="21" height="27" rx="4" fill="#C5C3C6"/>
<rect x="101" y="214" width="21" height="27" rx="4" fill="#C5C3C6"/>
<rect x="138" y="19" width="21" height="27" rx="4" fill="#C5C3C6"/>
<rect x="138" y="214" width="21" height="27" rx="4" fill="#C5C3C6"/>
<rect x="175" y="19" width="21" height="27" rx="4" fill="#C5C3C6"/>
<rect x="175" y="214" width="21" height="27" rx="4" fill="#C5C3C6"/>
<rect x="212" y="19" width="21" height="27" rx="4" fill="#C5C3C6"/>
<rect x="212" y="214" width="21" height="27" rx="4" fill="#C5C3C6"/>
<rect x="249" y="19" width="21" height="27" rx="4" fill="#C5C3C6"/>
<rect x="249" y="214" width="21" height="27" rx="4" fill="#C5C3C6"/>
<g style="mix-blend-mode:difference">
<rect x="99" y="56" width="154" height="154" rx="4" fill="#00FF00"/>
</g>
<g style="mix-blend-mode:difference">
<rect x="57" y="53" width="154" height="164" rx="4" fill="#0000FF"/>
</g>
<g style="mix-blend-mode:difference">
<rect x="5" y="48" width="154" height="158" rx="4" fill="#FF0000"/>
</g>
</g>
</svg>
